<?xml version="1.0" encoding="UTF-8" standalone="no"?>
<!DOCTYPE svg PUBLIC "-//W3C//DTD SVG 1.1//EN" "http://www.w3.org/Graphics/SVG/1.1/DTD/svg11.dtd">
<svg width="100%" height="100%" viewBox="0 0 610 100" version="1.1" xmlns="http://www.w3.org/2000/svg" xmlns:xlink="http://www.w3.org/1999/xlink" xml:space="preserve" xmlns:serif="http://www.serif.com/" style="fill-rule:evenodd;clip-rule:evenodd;stroke-linejoin:round;stroke-miterlimit:2;">
    <g>
        <g>
            <g>
                <path d="M7.121,66.632C17.411,71.572 27.808,76.764 31.026,78.342C33.651,79.63 35.87,81.448 40.468,77.375C43.839,74.388 54.474,64.776 59.906,59.861L1.299,59.861C-2.025,59.861 1.432,63.901 7.121,66.632" style="fill:rgb(162,19,61);fill-rule:nonzero;"/>
                <path d="M25.107,95.951C33.685,93.272 42.411,90.706 45.103,89.892C47.3,89.228 49.366,89.175 51.397,83.607C52.887,79.524 57.536,66.51 59.907,59.861C50.257,68.1 21.775,92.424 19.112,94.699C16.798,96.674 20.364,97.432 25.107,95.951" style="fill:rgb(224,29,90);fill-rule:nonzero;"/>
            </g>
            <g>
                <path d="M92.879,33.368C82.588,28.429 72.191,23.235 68.974,21.658C66.349,20.371 64.129,18.552 59.533,22.624C56.161,25.612 45.525,35.224 40.092,40.139L98.701,40.139C102.024,40.139 98.568,36.098 92.879,33.368" style="fill:rgb(11,132,83);fill-rule:nonzero;"/>
                <path d="M74.893,4.049C66.314,6.728 57.589,9.293 54.896,10.108C52.7,10.772 50.634,10.825 48.601,16.393C47.111,20.477 42.465,33.49 40.092,40.139C49.742,31.899 78.224,7.576 80.887,5.301C83.201,3.326 79.636,2.568 74.893,4.049" style="fill:rgb(43,183,124);fill-rule:nonzero;"/>
            </g>
            <g>
                <path d="M66.632,92.879C71.571,82.588 76.764,72.192 78.342,68.973C79.629,66.348 81.448,64.129 77.375,59.532C74.388,56.161 64.775,45.526 59.86,40.093L59.86,98.701C59.86,102.025 63.902,98.569 66.632,92.879" style="fill:rgb(208,105,33);fill-rule:nonzero;"/>
                <path d="M95.95,74.894C93.272,66.314 90.706,57.588 89.893,54.896C89.228,52.7 89.174,50.633 83.605,48.602C79.523,47.111 66.51,42.465 59.86,40.092C68.101,49.742 92.423,78.224 94.699,80.888C96.674,83.201 97.432,79.636 95.95,74.894" style="fill:rgb(235,177,42);fill-rule:nonzero;"/>
            </g>
            <g>
                <path d="M33.367,7.122C28.428,17.412 23.235,27.808 21.658,31.027C20.369,33.652 18.551,35.871 22.624,40.468C25.611,43.839 35.224,54.474 40.139,59.908L40.139,1.299C40.139,-2.025 36.097,1.431 33.367,7.122" style="fill:rgb(20,148,207);fill-rule:nonzero;"/>
                <path d="M4.049,25.106C6.727,33.686 9.292,42.412 10.107,45.104C10.772,47.3 10.825,49.367 16.393,51.397C20.476,52.889 33.488,57.534 40.139,59.907C31.898,50.258 7.576,21.776 5.301,19.113C3.325,16.798 2.568,20.364 4.049,25.106" style="fill:rgb(51,197,239);fill-rule:nonzero;"/>
            </g>
        </g>
        <g id="Layer1">
            <path d="M187.776,13.761C185.676,13.761 184.31,14.811 183.785,16.912L170.234,60.924C169.184,64.391 168.449,67.542 167.503,70.903L165.613,70.903C164.667,67.542 163.932,64.391 162.881,61.134L149.331,16.912C148.701,14.811 147.545,13.761 145.445,13.761L134.94,13.761C132.524,13.761 131.159,15.126 131.054,17.647L128.218,86.239L137.461,86.239L139.982,21.429L142.083,21.429L158.26,74.895C158.89,76.891 160.255,78.046 162.461,78.046L170.76,78.046C172.86,78.046 174.226,76.891 174.751,74.895L190.928,21.429L193.134,21.429L195.76,86.239L205.003,86.239L201.957,17.647C201.957,15.126 200.592,13.761 198.176,13.761L187.776,13.761Z" style="fill:rgb(51,51,51);fill-rule:nonzero;stroke:rgb(51,51,51);stroke-width:1px;"/>
            <path d="M260.255,63.55L267.398,86.239L276.957,86.239L253.638,16.282C253.218,14.706 251.852,13.761 250.171,13.761L240.508,13.761C238.827,13.761 237.461,14.706 237.041,16.282L213.722,86.239L223.281,86.239L230.424,63.55L260.255,63.55ZM257.734,55.567L232.945,55.567L242.083,26.786C242.713,24.895 243.344,22.794 243.869,20.903L246.81,20.903C247.335,22.794 247.966,24.895 248.596,26.786L257.734,55.567Z" style="fill:rgb(51,51,51);fill-rule:nonzero;stroke:rgb(51,51,51);stroke-width:1px;"/>
            <path d="M336.621,13.761L327.062,13.761L310.045,71.113C309.205,73.739 308.47,76.471 307.839,79.097L305.003,79.097C304.373,76.471 303.638,73.845 302.903,71.218L285.781,13.761L276.222,13.761L298.176,83.613C298.596,85.084 299.961,86.239 301.747,86.239L311.096,86.239C312.776,86.239 314.142,85.084 314.667,83.613L336.621,13.761Z" style="fill:rgb(51,51,51);fill-rule:nonzero;stroke:rgb(51,51,51);stroke-width:1px;"/>
            <path d="M391.558,78.571L362.461,78.571C358.155,78.571 356.159,76.471 356.159,71.534L356.159,51.681L387.461,51.681L387.461,44.223L356.159,44.223L356.159,28.466C356.159,23.634 358.155,21.534 362.461,21.534L391.558,21.534L391.978,14.286C382.314,13.655 371.285,13.655 360.886,13.655C352.377,13.655 347.02,18.487 346.915,26.261L346.915,73.739C347.02,81.513 352.377,86.345 360.886,86.345C371.285,86.345 382.314,86.345 391.978,85.714L391.558,78.571Z" style="fill:rgb(51,51,51);fill-rule:nonzero;stroke:rgb(51,51,51);stroke-width:1px;"/>
            <path d="M457.419,86.239L450.381,63.34C448.806,57.248 445.024,53.887 441.453,52.941L441.453,52.416C451.012,51.155 454.793,45.483 454.793,33.718C454.793,17.437 448.176,12.815 431.369,12.815C419.709,12.815 414.247,12.92 406.369,13.761L406.369,86.239L415.508,86.239L415.508,55.882C419.499,55.882 424.751,55.987 431.474,55.987C436.306,55.987 439.247,58.088 441.138,63.55L447.545,86.239L457.419,86.239ZM415.508,48.004L415.508,20.903C419.604,20.903 424.961,20.798 431.159,20.798C441.873,20.798 445.445,23.634 445.445,34.244C445.445,44.958 441.873,47.899 431.159,48.004L415.508,48.004Z" style="fill:rgb(51,51,51);fill-rule:nonzero;stroke:rgb(51,51,51);stroke-width:1px;"/>
            <rect x="471.285" y="13.761" width="9.244" height="72.479" style="fill:rgb(51,51,51);stroke:rgb(51,51,51);stroke-width:1px;"/>
            <path d="M524.541,12.5C503.638,12.5 496.075,22.374 496.075,50C496.075,77.626 503.638,87.5 524.541,87.5C533.995,87.5 539.667,86.765 545.76,85.084L544.814,78.151C538.932,78.992 533.47,79.307 524.541,79.307C510.36,79.307 505.844,72.059 505.844,50C505.844,27.941 510.36,20.693 524.541,20.693C532.945,20.693 537.041,21.008 543.344,21.639L544.289,14.601C538.302,13.13 533.68,12.5 524.541,12.5Z" style="fill:rgb(51,51,51);fill-rule:nonzero;stroke:rgb(51,51,51);stroke-width:1px;"/>
            <path d="M576.117,52.206L599.226,86.239L609.625,86.239L587.566,53.676C586.411,51.996 584.835,50.315 583.05,48.634L583.05,48.424C584.73,46.744 585.781,45.693 587.041,43.803L608.155,13.761L598.071,13.761L576.012,44.748L567.188,44.748C567.608,42.017 567.818,39.391 567.818,36.45L567.818,13.761L558.68,13.761L558.68,86.239L567.818,86.239L567.818,59.874C567.818,57.353 567.608,54.832 567.188,52.206L576.117,52.206Z" style="fill:rgb(51,51,51);fill-rule:nonzero;stroke:rgb(51,51,51);stroke-width:1px;"/>
        </g>
    </g>
</svg>
